<svg width="24" height="24" viewBox="0 0 24 24" fill="none" xmlns="http://www.w3.org/2000/svg">
<g clip-path="url(#clip0_661_14736)">
<path d="M7.22363 11.0953L4.59863 8.79844L1.97363 11.0953V0.28125H7.22363V11.0953Z" fill="#2D46C4"/>
<path d="M21.6801 5.77498H19.0129C17.9676 5.77498 17.1191 4.92654 17.1191 3.88123V1.20935H17.8129V3.87654C17.8129 4.53748 18.352 5.07654 19.0129 5.07654H21.6801V5.77498Z" fill="#2D46C4"/>
<path d="M20.1332 23.7187H6.1457C5.10039 23.7187 4.25195 22.8703 4.25195 21.825V10.0219H4.9457V21.825C4.9457 22.4859 5.48477 23.025 6.1457 23.025H20.1285C20.7895 23.025 21.3285 22.4859 21.3285 21.825V5.56874L17.4895 1.56093H7.95977V0.862488H17.7895L22.0223 5.28749V21.825C22.027 22.8703 21.1785 23.7187 20.1332 23.7187Z" fill="#2D46C4"/>
<path d="M6.37012 13.5047H19.8607V14.1984H6.37012V13.5047Z" fill="#2D46C4"/>
<path d="M6.37012 15.2906H15.9701V15.9844H6.37012V15.2906Z" fill="#2D46C4"/>
<path d="M6.37012 17.0719H12.6936V17.7656H6.37012V17.0719Z" fill="#2D46C4"/>
<path d="M6.37012 18.8578H19.3732V19.5516H6.37012V18.8578Z" fill="#2D46C4"/>
<path d="M6.37012 20.6437H18.3139V21.3375H6.37012V20.6437Z" fill="#2D46C4"/>
<path d="M9.64746 10.0734V11.2969H9.1084V8.0625H10.3459C10.7021 8.0625 10.9834 8.15625 11.185 8.33906C11.3865 8.52187 11.4896 8.76562 11.4896 9.06562C11.4896 9.37031 11.3865 9.61406 11.185 9.79688C10.9834 9.97969 10.7021 10.0688 10.3459 10.0688H9.64746V10.0734ZM9.64746 9.64219H10.3459C10.5475 9.64219 10.6975 9.59063 10.7959 9.48281C10.8943 9.375 10.9459 9.23906 10.9459 9.075C10.9459 8.91094 10.8943 8.775 10.7959 8.6625C10.6975 8.55469 10.5428 8.49844 10.3459 8.49844H9.64746V9.64219Z" fill="#2D46C4"/>
<path d="M12.1367 11.3016V8.0672H13.2055C13.6133 8.0672 13.9508 8.19376 14.2039 8.45157C14.4617 8.70939 14.5883 9.03751 14.5883 9.44064V9.93282C14.5883 10.3359 14.4617 10.6641 14.2039 10.9219C13.9461 11.175 13.6133 11.3016 13.2055 11.3016H12.1367ZM12.6805 8.49845V10.8656H13.2102C13.468 10.8656 13.6742 10.7766 13.8289 10.6031C13.9836 10.4297 14.0586 10.2047 14.0586 9.92814V9.43126C14.0586 9.15939 13.9836 8.93439 13.8289 8.76095C13.6742 8.58751 13.4727 8.49845 13.2102 8.49845H12.6805Z" fill="#2D46C4"/>
<path d="M17.1664 9.92345H15.8633V11.3016H15.3242V8.0672H17.3914V8.49845H15.8633V9.48751H17.1664V9.92345Z" fill="#2D46C4"/>
</g>
<defs>
<clipPath id="clip0_661_14736">
<rect width="24" height="24" fill="white"/>
</clipPath>
</defs>
</svg>
