<svg width="128" height="128" viewBox="0 0 128 128" fill="none" xmlns="http://www.w3.org/2000/svg">
<rect width="128" height="128" rx="24" fill="#E8EBFF"/>
<g clip-path="url(#clip0_3601_31260)">
<path d="M60.5091 111.127C84.6088 111.127 104.145 91.5906 104.145 67.4909C104.145 43.3912 84.6088 23.8545 60.5091 23.8545C36.4094 23.8545 16.8727 43.3912 16.8727 67.4909C16.8727 91.5906 36.4094 111.127 60.5091 111.127Z" fill="#E7EFFF"/>
<path d="M104.145 67.4908C104.145 76.1213 101.586 84.5579 96.7914 91.7339C91.9966 98.9099 85.1815 104.503 77.208 107.806C69.2345 111.108 60.4607 111.972 51.9961 110.289C43.5314 108.605 35.7562 104.449 29.6535 98.3464C23.5509 92.2438 19.3949 84.4685 17.7112 76.0039C16.0275 67.5393 16.8916 58.7654 20.1944 50.7919C23.4971 42.8184 29.0901 36.0034 36.266 31.2085C43.442 26.4137 51.8786 23.8545 60.5091 23.8545C72.0822 23.8545 83.1812 28.4519 91.3646 36.6353C99.548 44.8187 104.145 55.9178 104.145 67.4908Z" fill="#7B8EF0"/>
<path d="M39.5636 22.1094C41.0096 22.1094 42.1818 20.9372 42.1818 19.4912C42.1818 18.0452 41.0096 16.873 39.5636 16.873C38.1176 16.873 36.9454 18.0452 36.9454 19.4912C36.9454 20.9372 38.1176 22.1094 39.5636 22.1094Z" fill="#FFBE16"/>
<path d="M108.509 30.8369C109.955 30.8369 111.127 29.6648 111.127 28.2188C111.127 26.7728 109.955 25.6006 108.509 25.6006C107.063 25.6006 105.891 26.7728 105.891 28.2188C105.891 29.6648 107.063 30.8369 108.509 30.8369Z" fill="#EBD512"/>
<path d="M95.4182 111.128C96.8642 111.128 98.0364 109.956 98.0364 108.51C98.0364 107.064 96.8642 105.892 95.4182 105.892C93.9722 105.892 92.8 107.064 92.8 108.51C92.8 109.956 93.9722 111.128 95.4182 111.128Z" fill="#D92037"/>
<path d="M19.4909 100.655C20.9369 100.655 22.1091 99.4831 22.1091 98.0371C22.1091 96.5911 20.9369 95.4189 19.4909 95.4189C18.0449 95.4189 16.8727 96.5911 16.8727 98.0371C16.8727 99.4831 18.0449 100.655 19.4909 100.655Z" fill="#EBD512"/>
<path d="M100.655 50.0369C100.655 50.7313 100.379 51.3972 99.8877 51.8882C99.3967 52.3792 98.7307 52.6551 98.0363 52.6551H91.9272C91.2329 52.6551 90.5669 52.9309 90.0759 53.4219C89.5849 53.9129 89.3091 54.5789 89.3091 55.2732V63.1278C89.3091 63.8222 89.0332 64.4881 88.5422 64.9791C88.0512 65.4701 87.3853 65.746 86.6909 65.746C85.9965 65.746 85.3305 65.4701 84.8395 64.9791C84.3485 64.4881 84.0727 63.8222 84.0727 63.1278V55.2732C84.0727 54.5789 83.7969 53.9129 83.3058 53.4219C82.8148 52.9309 82.1489 52.6551 81.4545 52.6551H74.4727C73.7783 52.6551 73.1124 52.3792 72.6214 51.8882C72.1304 51.3972 71.8545 50.7313 71.8545 50.0369C71.8545 49.3425 72.1304 48.6765 72.6214 48.1855C73.1124 47.6945 73.7783 47.4187 74.4727 47.4187H78.4C78.9786 47.4187 79.5336 47.1888 79.9427 46.7797C80.3519 46.3705 80.5818 45.8155 80.5818 45.2369C80.5818 44.6582 80.3519 44.1033 79.9427 43.6941C79.5336 43.2849 78.9786 43.0551 78.4 43.0551H69.2363C68.3105 43.0551 67.4226 42.6873 66.7679 42.0326C66.1132 41.3779 65.7454 40.49 65.7454 39.5642C65.7454 38.6383 66.1132 37.7504 66.7679 37.0957C67.4226 36.441 68.3105 36.0732 69.2363 36.0732H97.1636C98.0895 36.0732 98.9774 36.441 99.6321 37.0957C100.287 37.7504 100.655 38.6383 100.655 39.5642C100.655 40.49 100.287 41.3779 99.6321 42.0326C98.9774 42.6873 98.0895 43.0551 97.1636 43.0551H94.1091C93.5304 43.0551 92.9754 43.2849 92.5663 43.6941C92.1571 44.1033 91.9272 44.6582 91.9272 45.2369C91.9272 45.8155 92.1571 46.3705 92.5663 46.7797C92.9754 47.1888 93.5304 47.4187 94.1091 47.4187H98.0363C98.7307 47.4187 99.3967 47.6945 99.8877 48.1855C100.379 48.6765 100.655 49.3425 100.655 50.0369Z" fill="#2D46C4"/>
<path d="M98.0364 72.474V93.6726H25.6C19.9197 86.1273 16.8556 76.9351 16.8727 67.4907C21.1054 65.274 23.7062 44.4682 23.776 43.9271C24.7577 42.4092 25.8302 40.952 26.9876 39.5635H51.6945C52.2596 39.564 52.8161 39.7016 53.3162 39.9646C53.8163 40.2276 54.2451 40.608 54.5658 41.0733L72.7273 67.4907L95.6887 69.8646C96.3337 69.9316 96.9309 70.2355 97.3646 70.7176C97.7983 71.1997 98.0377 71.8256 98.0364 72.474Z" fill="#2D46C4"/>
<path d="M98.0363 73.6006H90.1818C89.2178 73.6006 88.4363 74.3821 88.4363 75.346V80.5824C88.4363 81.5464 89.2178 82.3279 90.1818 82.3279H98.0363C99.0003 82.3279 99.7818 81.5464 99.7818 80.5824V75.346C99.7818 74.3821 99.0003 73.6006 98.0363 73.6006Z" fill="#FFBE16"/>
<path d="M100.655 95.4183V98.9092C100.655 99.3721 100.471 99.8161 100.143 100.143C99.816 100.471 99.372 100.655 98.9091 100.655H32.1542C29.7214 98.5734 27.5236 96.2322 25.6 93.6729H98.9091C99.372 93.6729 99.816 93.8567 100.143 94.1841C100.471 94.5114 100.655 94.9554 100.655 95.4183Z" fill="#FFBE16"/>
<path d="M56.1455 33.4551V36.0733H49.1636V39.5642H45.6727V36.0733H30.2342C31.1855 35.1569 32.1891 34.2754 33.2189 33.4551H56.1455Z" fill="#323FD4"/>
<path d="M66.6182 67.4914L51.424 44.7045C51.2649 44.466 51.0495 44.2703 50.7968 44.1349C50.5441 43.9994 50.262 43.9283 49.9753 43.9277H30.8363C30.3734 43.9277 29.9295 44.1116 29.6021 44.439C29.2748 44.7663 29.0909 45.2103 29.0909 45.6732V65.7459C29.0909 66.2088 29.2748 66.6528 29.6021 66.9801C29.9295 67.3075 30.3734 67.4914 30.8363 67.4914H66.6182ZM23.8545 43.9277V65.7459C23.8545 66.2088 23.6706 66.6528 23.3433 66.9801C23.016 67.3075 22.572 67.4914 22.1091 67.4914H16.8727C16.8586 59.1362 19.2556 50.9545 23.776 43.9277H23.8545Z" fill="white"/>
<path d="M30.8363 75.3454H36.0727C36.5356 75.3454 36.9796 75.1615 37.3069 74.8342C37.6343 74.5068 37.8182 74.0629 37.8182 73.5999C37.8182 73.137 37.6343 72.6931 37.3069 72.3657C36.9796 72.0384 36.5356 71.8545 36.0727 71.8545H30.8363C30.3734 71.8545 29.9294 72.0384 29.6021 72.3657C29.2748 72.6931 29.0909 73.137 29.0909 73.5999C29.0909 74.0629 29.2748 74.5068 29.6021 74.8342C29.9294 75.1615 30.3734 75.3454 30.8363 75.3454Z" fill="#8FA2FF"/>
<path d="M61.3818 108.51C68.1297 108.51 73.6 103.039 73.6 96.2914C73.6 89.5435 68.1297 84.0732 61.3818 84.0732C54.6339 84.0732 49.1636 89.5435 49.1636 96.2914C49.1636 103.039 54.6339 108.51 61.3818 108.51Z" fill="#0A1860"/>
<path d="M61.3818 101.527C64.2738 101.527 66.6182 99.183 66.6182 96.2911C66.6182 93.3991 64.2738 91.0547 61.3818 91.0547C58.4898 91.0547 56.1454 93.3991 56.1454 96.2911C56.1454 99.183 58.4898 101.527 61.3818 101.527Z" fill="#4E6AFF"/>
<path d="M89.3091 87.5635H93.6727C94.1547 87.5635 94.5455 87.1727 94.5455 86.6907V84.9453C94.5455 84.4633 94.1547 84.0726 93.6727 84.0726H89.3091C88.8271 84.0726 88.4364 84.4633 88.4364 84.9453V86.6907C88.4364 87.1727 88.8271 87.5635 89.3091 87.5635Z" fill="white"/>
<path d="M66.6705 57.9434H63.1796C62.6976 57.9434 62.3069 58.3341 62.3069 58.8161V69.2888C62.3069 69.7708 62.6976 70.1615 63.1796 70.1615H66.6705C67.1525 70.1615 67.5432 69.7708 67.5432 69.2888V58.8161C67.5432 58.3341 67.1525 57.9434 66.6705 57.9434Z" fill="#323FD4"/>
<path d="M65.7455 48.2917C66.7094 48.2917 67.4909 47.5102 67.4909 46.5462C67.4909 45.5822 66.7094 44.8008 65.7455 44.8008C64.7815 44.8008 64 45.5822 64 46.5462C64 47.5102 64.7815 48.2917 65.7455 48.2917Z" fill="#A5BCED"/>
<path d="M94.5454 32.5817C95.5094 32.5817 96.2909 31.8003 96.2909 30.8363C96.2909 29.8723 95.5094 29.0908 94.5454 29.0908C93.5815 29.0908 92.8 29.8723 92.8 30.8363C92.8 31.8003 93.5815 32.5817 94.5454 32.5817Z" fill="#A5BCED"/>
<path d="M98.0364 65.7455C98.5184 65.7455 98.9091 65.3547 98.9091 64.8727C98.9091 64.3907 98.5184 64 98.0364 64C97.5544 64 97.1636 64.3907 97.1636 64.8727C97.1636 65.3547 97.5544 65.7455 98.0364 65.7455Z" fill="#A5BCED"/>
<path d="M37.7135 43.9278H20.4684C19.8298 43.927 19.2029 43.7563 18.6522 43.433C18.1015 43.1098 17.6468 42.6457 17.3348 42.0885C17.0229 41.5313 16.865 40.9011 16.8774 40.2626C16.8897 39.6241 17.0719 39.0005 17.4051 38.4558L25.6873 24.8936C26.0451 24.3124 26.5458 23.8326 27.1416 23.4998C27.7374 23.1669 28.4084 22.9922 29.0909 22.9922C29.7734 22.9922 30.4445 23.1669 31.0403 23.4998C31.6361 23.8326 32.1367 24.3124 32.4945 24.8936L40.7855 38.4558C41.1162 39.0016 41.296 39.6255 41.3066 40.2637C41.3172 40.9018 41.1581 41.5313 40.8457 42.0879C40.5332 42.6444 40.0786 43.108 39.5283 43.4312C38.978 43.7545 38.3517 43.9258 37.7135 43.9278Z" fill="#D92037"/>
<path d="M29.0909 35.2003C28.8503 35.1995 28.6185 35.11 28.4398 34.949C28.261 34.788 28.148 34.5667 28.1222 34.3275L27.5375 29.0912C27.5116 28.8719 27.5324 28.6496 27.5987 28.439C27.665 28.2284 27.7751 28.0342 27.9219 27.8693C28.0687 27.7044 28.2488 27.5724 28.4503 27.4822C28.6518 27.3919 28.8701 27.3454 29.0909 27.3457C29.3117 27.3454 29.53 27.3919 29.7316 27.4822C29.9331 27.5724 30.1131 27.7044 30.2599 27.8693C30.4067 28.0342 30.5169 28.2284 30.5831 28.439C30.6494 28.6496 30.6703 28.8719 30.6444 29.0912L30.0596 34.3275C30.0339 34.5667 29.9208 34.788 29.7421 34.949C29.5633 35.11 29.3315 35.1995 29.0909 35.2003Z" fill="white"/>
<path d="M29.0909 40.4362C30.0549 40.4362 30.8364 39.6548 30.8364 38.6908C30.8364 37.7268 30.0549 36.9453 29.0909 36.9453C28.1269 36.9453 27.3455 37.7268 27.3455 38.6908C27.3455 39.6548 28.1269 40.4362 29.0909 40.4362Z" fill="white"/>
</g>
<defs>
<clipPath id="clip0_3601_31260">
<rect width="96" height="96" fill="white" transform="translate(16 16)"/>
</clipPath>
</defs>
</svg>
