<svg width="101" height="100" viewBox="0 0 101 100" fill="none" xmlns="http://www.w3.org/2000/svg">
<path d="M99.8544 53.6633L94.8329 47.4304C94.1131 46.5367 93.984 45.3007 94.5034 44.2757L98.1254 37.13C98.8518 35.697 98.2849 33.9435 96.8592 33.2133L89.7506 29.5722C88.7309 29.0502 88.113 27.9736 88.173 26.8251L88.5904 18.8163C88.6742 17.2102 87.4466 15.84 85.8484 15.7559L77.8811 15.3367C76.7381 15.2767 75.7381 14.5461 75.328 13.4725L72.4676 5.98443C71.8949 4.48304 70.2186 3.73306 68.7256 4.30963L61.2768 7.18361C60.2086 7.5958 58.999 7.33727 58.1905 6.5241L52.5487 0.852848C51.4171 -0.284283 49.5831 -0.284283 48.4516 0.852848L42.8098 6.5241C42.0005 7.33727 40.7909 7.5958 39.7227 7.18361L32.2739 4.30963C30.7801 3.73306 29.1046 4.48305 28.531 5.98472L25.6723 13.4721C25.2615 14.5459 24.2614 15.2767 23.1185 15.3367L15.1512 15.7559C13.5537 15.84 12.3262 17.2102 12.4099 18.8163L12.8274 26.8251C12.8874 27.9736 12.2686 29.0502 11.2497 29.5722L4.14027 33.2133C2.71462 33.9435 2.14842 35.697 2.87488 37.13L6.49694 44.2757C7.01621 45.3007 6.88723 46.5367 6.16659 47.4304L1.14594 53.6633C0.138498 54.9132 0.330789 56.7469 1.57408 57.7591L7.7747 62.8061C8.66375 63.53 9.0459 64.7121 8.75011 65.8229L6.68436 73.5701C6.27102 75.1235 7.18808 76.7203 8.73372 77.1366L16.4405 79.2123C17.5458 79.5101 18.3732 80.4335 18.5524 81.5696L19.8005 89.4908C20.0503 91.0794 21.5343 92.1631 23.1153 91.9115L30.9955 90.6567C32.1253 90.4769 33.2552 90.9824 33.8781 91.9471L38.2233 98.6736C39.0951 100.023 40.8897 100.406 42.2316 99.5297L48.922 95.1613C49.8818 94.5349 51.1184 94.5349 52.0782 95.1613L58.7693 99.5297C60.1112 100.406 61.9059 100.023 62.7768 98.6736L67.122 91.9471C67.7457 90.9824 68.8747 90.4769 70.0053 90.6567L77.8855 91.9115C79.4656 92.163 80.9496 91.0793 81.2003 89.4908L82.4484 81.5696C82.6275 80.4335 83.455 79.5101 84.5594 79.2123L92.2671 77.1366C93.8127 76.7203 94.7298 75.1235 94.3156 73.5701L92.2506 65.8229C91.954 64.712 92.336 63.53 93.2252 62.8061L99.4266 57.7591C100.67 56.7469 100.861 54.9132 99.8544 53.6633Z" fill="#D92037"/>
<path d="M50 32C40.08 32 32 40.08 32 50C32 59.92 40.08 68 50 68C59.92 68 68 59.92 68 50C68 40.08 59.92 32 50 32ZM50 36C53.14 36 56.04 37.06 58.36 38.8L38.8 58.36C37.04 56.02 36 53.14 36 50C36 42.28 42.28 36 50 36ZM50 64C46.86 64 43.96 62.94 41.64 61.2L61.2 41.64C62.96 43.98 64 46.86 64 50C64 57.72 57.72 64 50 64Z" fill="white"/>
</svg>
