<svg width="101" height="100" viewBox="0 0 101 100" fill="none" xmlns="http://www.w3.org/2000/svg">
<path d="M99.8544 53.6633L94.8329 47.4304C94.1131 46.5367 93.984 45.3007 94.5034 44.2757L98.1254 37.13C98.8518 35.697 98.2849 33.9435 96.8592 33.2133L89.7506 29.5722C88.7309 29.0502 88.113 27.9736 88.173 26.8251L88.5904 18.8163C88.6742 17.2102 87.4466 15.84 85.8484 15.7559L77.8811 15.3367C76.7381 15.2767 75.7381 14.5461 75.328 13.4725L72.4676 5.98443C71.8949 4.48304 70.2186 3.73306 68.7256 4.30963L61.2768 7.18361C60.2086 7.5958 58.999 7.33727 58.1905 6.5241L52.5487 0.852848C51.4171 -0.284283 49.5831 -0.284283 48.4516 0.852848L42.8098 6.5241C42.0005 7.33727 40.7909 7.5958 39.7227 7.18361L32.2739 4.30963C30.7801 3.73306 29.1046 4.48305 28.531 5.98472L25.6723 13.4721C25.2615 14.5459 24.2614 15.2767 23.1185 15.3367L15.1512 15.7559C13.5537 15.84 12.3262 17.2102 12.4099 18.8163L12.8274 26.8251C12.8874 27.9736 12.2686 29.0502 11.2497 29.5722L4.14027 33.2133C2.71462 33.9435 2.14842 35.697 2.87488 37.13L6.49694 44.2757C7.01621 45.3007 6.88723 46.5367 6.16659 47.4304L1.14594 53.6633C0.138498 54.9132 0.330789 56.7469 1.57408 57.7591L7.7747 62.8061C8.66375 63.53 9.0459 64.7121 8.75011 65.8229L6.68436 73.5701C6.27102 75.1235 7.18808 76.7203 8.73372 77.1366L16.4405 79.2123C17.5458 79.5101 18.3732 80.4335 18.5524 81.5696L19.8005 89.4908C20.0503 91.0794 21.5343 92.1631 23.1153 91.9115L30.9955 90.6567C32.1253 90.4769 33.2552 90.9824 33.8781 91.9471L38.2233 98.6736C39.0951 100.023 40.8897 100.406 42.2316 99.5297L48.922 95.1613C49.8818 94.5349 51.1184 94.5349 52.0782 95.1613L58.7693 99.5297C60.1112 100.406 61.9059 100.023 62.7768 98.6736L67.122 91.9471C67.7457 90.9824 68.8747 90.4769 70.0053 90.6567L77.8855 91.9115C79.4656 92.163 80.9496 91.0793 81.2003 89.4908L82.4484 81.5696C82.6275 80.4335 83.455 79.5101 84.5594 79.2123L92.2671 77.1366C93.8127 76.7203 94.7298 75.1235 94.3156 73.5701L92.2506 65.8229C91.954 64.712 92.336 63.53 93.2252 62.8061L99.4266 57.7591C100.67 56.7469 100.861 54.9132 99.8544 53.6633Z" fill="#D92037"/>
<path d="M63.9729 37.8671L64.2658 38.16H64.68H65.48C66.4043 38.16 67.525 38.1783 68.4236 38.6751C68.8456 38.9085 69.2223 39.252 69.5026 39.7853C69.788 40.3281 70 41.1193 70 42.28C70 43.8475 69.6993 44.7611 69.3263 45.303C68.9729 45.8164 68.4793 46.1056 67.8193 46.2646C67.3553 46.3629 66.8547 46.4 66.28 46.4H35.72C35.1287 46.4 34.6109 46.378 34.1546 46.2679L34.1475 46.2662L34.1403 46.2646C33.6539 46.1547 33.2699 45.9688 32.9614 45.6475L32.9543 45.6401L32.9471 45.6329C32.3801 45.0659 32 44.1069 32 42.28C32 41.1193 32.212 40.3283 32.4975 39.7856C32.7779 39.2525 33.155 38.909 33.5781 38.6756C34.4793 38.1784 35.605 38.16 36.54 38.16H37.34H37.7551L38.0482 37.8661L44.7793 31.1149C44.9563 30.9492 45.2045 30.9654 45.3467 31.1011C45.5131 31.2805 45.4936 31.5322 45.3529 31.6729L40.5729 36.4529L38.8658 38.16H41.28H60.72H63.1342L61.4271 36.4529L56.6553 31.681C56.4892 31.5041 56.5053 31.2556 56.6411 31.1133C56.8205 30.9469 57.0722 30.9664 57.2129 31.1071L63.9729 37.8671Z" fill="white" stroke="white" stroke-width="2"/>
<path d="M35.7467 52.1587L35.7466 52.1582C35.6473 51.5521 36.1114 51 36.7398 51H65.0998C65.7299 51 66.1989 51.5656 66.078 52.19L66.078 52.1904L64.058 62.6504L64.0575 62.6529C63.6988 64.536 63.2557 66.0654 62.2371 67.1543C61.2591 68.1997 59.5862 69 56.3798 69H45.1598C42.0427 69 40.301 68.083 39.2557 66.9212C38.1742 65.719 37.6978 64.104 37.4268 62.4393L37.4267 62.4387L35.7467 52.1587ZM46.8398 65.3C48.1615 65.3 49.2198 64.2229 49.2198 62.9V56.3C49.2198 55.0065 48.1707 53.9 46.8398 53.9C45.4983 53.9 44.4398 54.997 44.4398 56.3V62.9C44.4398 64.2323 45.5075 65.3 46.8398 65.3ZM55.3798 65.3C56.7121 65.3 57.7798 64.2323 57.7798 62.9V56.3C57.7798 54.997 56.7214 53.9 55.3798 53.9C54.0675 53.9 52.9798 54.9877 52.9798 56.3V62.9C52.9798 64.2416 54.0768 65.3 55.3798 65.3Z" fill="white" stroke="white" stroke-width="2"/>
</svg>
