<svg width="14" height="21" viewBox="0 0 14 21" fill="none" xmlns="http://www.w3.org/2000/svg">
<path d="M11.39 8H2.61C2.18 8 1.8 8.28 1.66 8.68L0 13.68V20.49C0 20.78 0.23 21 0.5 21H1.5C1.78 21 2 20.78 2 20.5V19H12V20.5C12 20.78 12.22 21 12.5 21H13.5C13.78 21 14 20.78 14 20.5V13.69L12.34 8.69C12.2 8.28 11.82 8 11.39 8ZM2.78 17C2.1 17 1.56 16.46 1.56 15.78C1.56 15.1 2.1 14.56 2.78 14.56C3.46 14.56 4 15.11 4 15.78C4 16.45 3.46 17 2.78 17ZM11.22 17C10.55 17 10 16.46 10 15.78C10 15.1 10.54 14.56 11.22 14.56C11.9 14.56 12.44 15.1 12.44 15.78C12.44 16.46 11.9 17 11.22 17ZM1.29 13L2.62 9H11.4L12.73 13H1.29Z" fill="white"/>
<path d="M5.83 2C5.41 0.83 4.3 0 3 0C1.34 0 0 1.34 0 3C0 4.65 1.34 6 3 6C4.3 6 5.41 5.16 5.83 4H11V6H13V4H14V2H5.83ZM3 4C2.45 4 2 3.55 2 3C2 2.45 2.45 2 3 2C3.55 2 4 2.45 4 3C4 3.55 3.55 4 3 4Z" fill="white"/>
</svg>
