<svg width="24" height="24" viewBox="0 0 24 24" fill="none" xmlns="http://www.w3.org/2000/svg">
<path d="M12 0C5.36327 0 0 5.36327 0 12C0 18.6367 5.36327 24 12 24C18.6367 24 24 18.6367 24 12C24 5.36327 18.6367 0 12 0ZM12 22.0065C6.4849 22.0065 1.99347 17.5151 1.99347 12C1.99347 6.4849 6.4849 1.99347 12 1.99347C17.5151 1.99347 22.0065 6.4849 22.0065 12C22.0065 17.5151 17.5151 22.0065 12 22.0065Z" fill="white"/>
<path d="M14.2482 10.9764H13.0237V6.27929C13.0237 5.71602 12.5633 5.25562 12 5.25562C11.4367 5.25562 10.9763 5.71602 10.9763 6.27929V12.0001C10.9763 12.5634 11.4367 13.0238 12 13.0238H14.2482C14.8114 13.0238 15.2718 12.5634 15.2718 12.0001C15.2718 11.4368 14.8065 10.9764 14.2482 10.9764Z" fill="white"/>
</svg>
