<svg width="26" height="26" viewBox="0 0 26 26" fill="none" xmlns="http://www.w3.org/2000/svg">
<path d="M22.1927 3.80732C19.7364 1.35107 16.475 0 13 0C9.52505 0 6.26356 1.35107 3.80732 3.80732C1.35107 6.26356 0 9.52505 0 13C0 16.475 1.35107 19.7364 3.80732 22.1927C6.26356 24.6489 9.52505 26 13 26C16.475 26 19.7364 24.6489 22.1927 22.1927C24.6489 19.7364 26 16.475 26 13C26 9.52505 24.6489 6.26356 22.1927 3.80732ZM21.147 21.147C18.969 23.3249 16.075 24.5219 13 24.5219C9.92496 24.5219 7.03097 23.3249 4.85304 21.147C0.362087 16.656 0.362087 9.34671 4.85304 4.85304C7.03097 2.67512 9.92496 1.47807 13 1.47807C16.075 1.47807 18.969 2.67512 21.147 4.85304C25.6379 9.344 25.6379 16.656 21.147 21.147ZM18.7285 8.31719L14.0457 13L18.7177 17.6828C19.0069 17.9719 19.0069 18.4367 18.7177 18.7285C18.5745 18.8772 18.3908 18.9474 18.1989 18.9474C18.0125 18.9474 17.8206 18.8717 17.6801 18.7285L12.9946 14.0457L8.31179 18.7285C8.16857 18.8772 7.97672 18.9474 7.79297 18.9474C7.60923 18.9474 7.41467 18.8717 7.27416 18.7285C6.98503 18.4394 6.98503 17.9746 7.27416 17.6828L11.9543 13L7.27146 8.31719C6.98233 8.02806 6.98233 7.56329 7.27146 7.27146C7.56059 6.98233 8.02536 6.98233 8.31719 7.27146L13 11.9543L17.6828 7.27146C17.9719 6.98233 18.4367 6.98233 18.7285 7.27146C19.0177 7.56059 19.0177 8.02536 18.7285 8.31719Z" fill="white"/>
</svg>
