<svg width="21" height="26" viewBox="0 0 21 26" fill="none" xmlns="http://www.w3.org/2000/svg">
<path fill-rule="evenodd" clip-rule="evenodd" d="M21 2.76871C21 2.03408 20.6701 1.3299 20.0823 0.811229C19.4956 0.291635 18.699 0 17.868 0C14.2495 0 6.85281 0 3.24162 0C1.51798 0 0.117983 1.23115 0.109631 2.75486C0.0824872 7.59918 0.00939597 20.458 0 21.9946C0 22.145 0.012538 22.2955 0.0396819 22.4441L0.264137 23.6872C0.469805 24.8316 1.46995 25.7351 2.75824 25.9437C4.04757 26.1514 5.34422 25.6179 5.99463 24.612L5.99672 24.6092C6.14288 24.3821 6.40075 24.229 6.69411 24.1948C6.98643 24.1597 7.28084 24.2474 7.48964 24.432L8.34571 25.1888C8.93244 25.7074 9.72901 26 10.56 26C11.3911 26 12.1876 25.7074 12.7744 25.1888L13.6857 24.3831C13.882 24.2096 14.1577 24.1274 14.4312 24.1597C14.7058 24.193 14.9469 24.336 15.0837 24.5483L15.0857 24.5511C15.7351 25.5552 17.0349 26.084 18.3201 25.8671C19.6052 25.6502 20.5928 24.7356 20.7776 23.5903L20.9687 22.4099C20.9896 22.2807 21 22.1497 21 22.0186V2.76871ZM18.912 2.76871V22.0186C18.912 22.062 18.9089 22.1053 18.9016 22.1487L18.7105 23.3301C18.6521 23.6946 18.3378 23.9853 17.9286 24.0545C17.5193 24.1237 17.1059 23.9549 16.8992 23.6355L16.8971 23.6328C16.4367 22.9212 15.6276 22.4394 14.7089 22.3305C13.7891 22.2216 12.8652 22.4976 12.2095 23.0781L11.2981 23.8838C11.1029 24.0564 10.8367 24.1542 10.56 24.1542C10.2834 24.1542 10.0172 24.0564 9.82193 23.8838L8.96586 23.127C8.2977 22.5354 7.35497 22.2539 6.41642 22.3647C5.47891 22.4764 4.6531 22.9674 4.1833 23.6937L4.18121 23.6964C3.97137 24.0222 3.55063 24.1948 3.13408 24.1274C2.71648 24.0601 2.39285 23.7675 2.32604 23.3974L2.10157 22.1533C2.09217 22.1035 2.08799 22.0537 2.08799 22.0038L2.19762 2.76409C2.20076 2.25649 2.66742 1.8458 3.24162 1.8458H17.868C18.1447 1.8458 18.4109 1.94271 18.6061 2.11621C18.8024 2.2888 18.912 2.52414 18.912 2.76871ZM5.34005 15.6893H15.78C16.3563 15.6893 16.824 15.2759 16.824 14.7664C16.824 14.257 16.3563 13.8435 15.78 13.8435H5.34005C4.76376 13.8435 4.29605 14.257 4.29605 14.7664C4.29605 15.2759 4.76376 15.6893 5.34005 15.6893ZM5.34005 11.0748H15.78C16.3563 11.0748 16.824 10.6614 16.824 10.1519C16.824 9.64248 16.3563 9.22902 15.78 9.22902H5.34005C4.76376 9.22902 4.29605 9.64248 4.29605 10.1519C4.29605 10.6614 4.76376 11.0748 5.34005 11.0748ZM5.34005 6.46032H15.78C16.3563 6.46032 16.824 6.04686 16.824 5.53741C16.824 5.02797 16.3563 4.61451 15.78 4.61451H5.34005C4.76376 4.61451 4.29605 5.02797 4.29605 5.53741C4.29605 6.04686 4.76376 6.46032 5.34005 6.46032Z" fill="white"/>
</svg>
