<svg width="24" height="21" viewBox="0 0 24 21" fill="none" xmlns="http://www.w3.org/2000/svg">
<path d="M8 0C5.86915 0 3.93738 0.412108 2.49167 1.12339C1.04595 1.83468 0 2.89587 0 4.20656V16.8016C0 18.1 1.03444 19.1559 2.48333 19.8684C3.93224 20.5809 5.86667 21 8 21C9.79304 21 11.4429 20.6987 12.7833 20.18C13.831 20.7024 15.0139 21 16.2667 21C20.5314 21 24 17.5869 24 13.3905C24 9.19407 20.5314 5.78094 16.2667 5.78094C16.175 5.78094 16.0825 5.78605 15.9917 5.78914V4.20656C15.9917 2.89587 14.954 1.83468 13.5083 1.12339C12.0626 0.412135 10.1308 0 8 0ZM8 1.05779C9.99288 1.05779 11.7933 1.46451 13.05 2.08278C14.3067 2.70107 14.9417 3.48838 14.9417 4.20656C14.6937 5.32098 13.864 5.93418 13.05 6.32214C11.7933 6.94043 9.99288 7.34713 8 7.34713C6.00712 7.34713 4.20669 6.94043 2.95 6.32214C2.01908 5.84758 1.17158 5.12421 1.05833 4.20656C1.05833 3.48838 1.69331 2.70107 2.95 2.08278C4.20669 1.46451 6.00712 1.05779 8 1.05779ZM1.06667 6.33854C1.46168 6.6967 1.94953 7.0148 2.49167 7.28153C3.93738 7.99281 5.86915 8.40494 8 8.40494C8.92415 8.40494 9.80768 8.32131 10.6333 8.17534C10.0043 8.83285 9.49448 9.60221 9.13333 10.4467C8.76445 10.4785 8.38693 10.5041 8 10.5041C6.01019 10.5041 4.21248 10.0961 2.95833 9.47911C1.70419 8.86208 1.06667 8.08614 1.06667 7.35533V6.33854ZM16.2667 6.83053C19.9549 6.83053 22.9333 9.7613 22.9333 13.3905C22.9333 17.0196 19.9549 19.9504 16.2667 19.9504C12.5785 19.9504 9.6 17.0196 9.6 13.3905C9.6 9.7613 12.5785 6.83053 16.2667 6.83053ZM16.5417 8.92973C14.5045 8.92973 12.7716 10.2558 12.2 12.0785C11.9415 12.0785 11.671 12.0785 11.4167 12.0785C11.1374 12.0914 10.8952 12.3531 10.9083 12.6279C10.9214 12.9027 11.1874 13.141 11.4667 13.1281H12.0167C12.0115 13.2147 12 13.3027 12 13.3905C12 13.5672 12.0128 13.7438 12.0333 13.9153C11.8303 13.9152 11.6156 13.9153 11.4167 13.9153C11.1374 13.9281 10.8952 14.1899 10.9083 14.4647C10.9214 14.7395 11.1874 14.9778 11.4667 14.9649H12.3C12.9513 16.6477 14.6064 17.8512 16.5417 17.8512C17.9945 17.8512 18.9965 17.2151 19.8417 16.3834C20.0466 16.1917 20.0488 15.8351 19.85 15.6373C19.6512 15.4394 19.2888 15.4378 19.0917 15.6373C18.3368 16.38 17.7045 16.8016 16.5417 16.8016C15.1966 16.8016 14.0363 16.0583 13.4583 14.9649H16.8C17.0818 14.9688 17.3417 14.7174 17.3417 14.4401C17.3417 14.1628 17.0818 13.9114 16.8 13.9153H13.1083C13.0816 13.7442 13.0667 13.5691 13.0667 13.3905C13.0667 13.3026 13.0685 13.2142 13.075 13.1281H16.8C17.0818 13.132 17.3417 12.8806 17.3417 12.6033C17.3417 12.326 17.0818 12.0746 16.8 12.0785H13.3333C13.8557 10.8444 15.0922 9.97934 16.5417 9.97934C17.7045 9.97934 18.3369 10.3928 19.0917 11.1355C19.2888 11.335 19.6512 11.3333 19.85 11.1355C20.0488 10.9377 20.0466 10.5811 19.8417 10.3893C18.9965 9.55766 17.9945 8.92973 16.5417 8.92973ZM1.06667 9.48733C1.45925 9.84266 1.94407 10.1568 2.48333 10.4221C3.93159 11.1346 5.86608 11.5537 8 11.5537C8.26056 11.5537 8.51324 11.5419 8.76667 11.529C8.61424 12.1242 8.53333 12.7492 8.53333 13.3904C8.53333 13.4751 8.53888 13.5606 8.54165 13.6446C8.36281 13.6514 8.18361 13.6527 8 13.6527C6.01019 13.6527 4.21248 13.2448 2.95833 12.6278C1.7042 12.0109 1.06667 11.2349 1.06667 10.5041V9.48733ZM1.06667 12.6361C1.45925 12.9914 1.94407 13.3056 2.48333 13.5709C3.93159 14.2834 5.86608 14.7025 8 14.7025C8.21877 14.7025 8.43646 14.6962 8.65 14.6862C8.7766 15.4091 9.00616 16.0979 9.325 16.7362C8.89489 16.7783 8.45501 16.8018 8 16.8018C6.01019 16.8018 4.21248 16.3938 2.95833 15.7768C1.70419 15.1596 1.06667 14.3837 1.06667 13.6529V12.6361ZM1.06667 15.7848C1.45925 16.1402 1.94407 16.4543 2.48333 16.7196C3.93159 17.4322 5.86608 17.8512 8 17.8512C8.66413 17.8512 9.30905 17.8142 9.925 17.7364C10.3936 18.3973 10.9639 18.9732 11.6167 19.4584C10.5649 19.7627 9.32654 19.9504 8 19.9504C6.01083 19.9504 4.21325 19.5425 2.95833 18.9254C1.70342 18.3083 1.06667 17.5322 1.06667 16.8016V15.7848Z" fill="white"/>
</svg>
