<svg width="25" height="25" viewBox="0 0 25 25" fill="none" xmlns="http://www.w3.org/2000/svg">
<path d="M1.14571 14.1556C1.72452 14.103 2.14548 13.6292 2.11917 13.0501C1.88238 8.52286 4.69753 4.25882 8.9597 2.70586C12.5904 1.3898 16.6158 2.17944 19.4836 4.75892L18.8522 5.41695C18.6154 5.68017 18.5101 6.04866 18.6417 6.39084C18.7469 6.73302 19.0363 6.99623 19.3784 7.04887L22.9565 7.75955C23.2985 7.83851 23.6405 7.7069 23.851 7.47001C24.0878 7.23312 24.1667 6.86462 24.0878 6.54877L23.167 3.02172C23.0617 2.67954 22.7986 2.41633 22.4566 2.31104C22.1146 2.23208 21.7462 2.33736 21.5095 2.60058L20.9043 3.23229C19.9572 2.39001 18.9048 1.70565 17.7735 1.17923C14.7478 -0.242119 11.3802 -0.373726 8.22303 0.758089C3.11894 2.6269 -0.248707 7.7069 0.0143902 13.1291C0.0406999 13.4186 0.172249 13.7082 0.382727 13.8924C0.566895 14.0503 0.803683 14.1556 1.04047 14.1556C1.09309 14.1556 1.1194 14.1556 1.14571 14.1556Z" fill="white"/>
<path d="M24.9823 11.8656C24.956 11.5761 24.8245 11.2866 24.614 11.1023C24.4035 10.9181 24.1404 10.8391 23.8773 10.8391C23.2985 10.8918 22.8775 11.3655 22.9038 11.9446C23.1406 16.4719 20.3255 20.7359 16.0633 22.2889C12.4326 23.6049 8.40718 22.8153 5.53941 20.2358L6.17085 19.5778C6.40764 19.3146 6.51287 18.9461 6.38133 18.6039C6.3024 18.3407 6.11823 18.1301 5.85513 18.0248C5.7762 17.9985 5.69727 17.9722 5.61834 17.9459L2.06653 17.2352C1.7245 17.1825 1.38247 17.2878 1.172 17.5247C0.935208 17.7616 0.856278 18.1038 0.935208 18.446L1.85605 21.973C1.93498 22.3152 2.19808 22.5784 2.56641 22.6837C2.90844 22.7626 3.27678 22.6574 3.51356 22.3941L4.11869 21.7624C6.46026 23.8681 9.45957 25 12.5115 25C13.9585 25 15.4056 24.7631 16.8 24.2366C21.983 22.3415 25.2717 17.3668 24.9823 11.8656Z" fill="white"/>
<path d="M13.0114 7.60146C13.9323 7.60146 14.8005 7.96996 15.5371 8.65431C15.8792 8.99649 16.4317 8.97017 16.7737 8.62799C17.1157 8.28581 17.0894 7.73307 16.7474 7.39089C15.695 6.39068 14.4058 5.86426 13.0377 5.86426C10.5646 5.86426 8.45982 7.6541 7.61791 10.1283H6.43397C6.01302 10.1283 5.67099 10.4705 5.67099 10.8916C5.67099 11.3128 6.01302 11.6549 6.43397 11.6549H7.30219C7.27588 11.9445 7.24957 12.2077 7.24957 12.4972C7.24957 12.7868 7.27588 13.0763 7.30219 13.3395H6.43397C6.01302 13.3395 5.67099 13.6817 5.67099 14.1028C5.67099 14.524 6.01302 14.8661 6.43397 14.8661H7.61791C8.45982 17.3667 10.5646 19.1302 13.0114 19.1302C14.3532 19.1302 15.6687 18.5774 16.7211 17.6035C17.0631 17.2614 17.0894 16.7349 16.7474 16.3664C16.4054 16.0243 15.8792 15.9979 15.5108 16.3401C14.8005 17.0245 13.9059 17.393 13.0114 17.393C11.4854 17.393 10.17 16.3664 9.4859 14.8398H13.5639C13.9849 14.8398 14.3269 14.4976 14.3269 14.0765C14.3269 13.6554 13.9849 13.3132 13.5639 13.3132H9.01233C8.95971 13.0236 8.9334 12.7604 8.9334 12.4709C8.9334 12.1814 8.95971 11.8918 9.01233 11.6286H13.5639C13.9849 11.6286 14.3269 11.2864 14.3269 10.8653C14.3269 10.4442 13.9849 10.102 13.5639 10.102H9.45959C10.1436 8.65431 11.4854 7.60146 13.0114 7.60146Z" fill="white"/>
</svg>
