<svg width="32" height="34" viewBox="0 0 32 34" fill="none" xmlns="http://www.w3.org/2000/svg">
<path d="M4.77214 12.839H0.662781V0.62793H31.3372V12.839H26.9892" stroke="#FFFEFE" stroke-miterlimit="10"/>
<path d="M3.97681 9.62313V4.72363H27.7846V9.62313" stroke="#FFFEFE" stroke-miterlimit="10"/>
<path d="M7.75757 7.73096C7.75757 7.17867 8.20528 6.73096 8.75757 6.73096H23.2424C23.7947 6.73096 24.2424 7.17867 24.2424 7.73096V21.1156C24.2424 21.6679 23.7947 22.1156 23.2424 22.1156H8.75757C8.20528 22.1156 7.75757 21.6679 7.75757 21.1156V7.73096Z" fill="white"/>
<path d="M16.3536 24.6464C16.1583 24.4512 15.8417 24.4512 15.6464 24.6464L12.4645 27.8284C12.2692 28.0237 12.2692 28.3403 12.4645 28.5355C12.6597 28.7308 12.9763 28.7308 13.1716 28.5355L16 25.7071L18.8284 28.5355C19.0237 28.7308 19.3403 28.7308 19.5355 28.5355C19.7308 28.3403 19.7308 28.0237 19.5355 27.8284L16.3536 24.6464ZM16.5 34L16.5 25L15.5 25L15.5 34L16.5 34Z" fill="white"/>
<path d="M16.6667 17.0278C15.6906 17.0278 14.8467 16.4756 14.4267 15.6667H16.6667V14.8889H14.17C14.1506 14.7606 14.1389 14.6322 14.1389 14.5C14.1389 14.3678 14.1506 14.2394 14.17 14.1111H16.6667V13.3333H14.4267C14.8467 12.5244 15.6944 11.9722 16.6667 11.9722C17.2928 11.9722 17.8683 12.2017 18.3117 12.5828L19 11.8944C18.3817 11.3383 17.5611 11 16.6667 11C15.1422 11 13.8511 11.9761 13.3689 13.3333H12V14.1111H13.19C13.1744 14.2394 13.1667 14.3678 13.1667 14.5C13.1667 14.6322 13.1744 14.7606 13.19 14.8889H12V15.6667H13.3689C13.8511 17.0239 15.1422 18 16.6667 18C17.565 18 18.3817 17.6617 19 17.1056L18.3078 16.4172C17.8683 16.7983 17.2967 17.0278 16.6667 17.0278Z" fill="#2D46C4"/>
</svg>
