<svg width="26" height="26" viewBox="0 0 26 26" fill="none" xmlns="http://www.w3.org/2000/svg">
<path d="M23.7644 10.3333H21.5191C21.1582 10.3333 20.8609 10.1347 20.7227 9.80133C20.5844 9.468 20.6547 9.11689 20.9093 8.86178L22.4969 7.27467C22.7302 7.04133 22.8587 6.73067 22.8587 6.40089C22.8587 6.07067 22.7302 5.76045 22.4969 5.52667L20.4733 3.50311C20.0067 3.03644 19.1929 3.03556 18.7253 3.50311L17.1382 5.09022C16.8831 5.34489 16.5311 5.416 16.1987 5.27733C15.8653 5.13911 15.6667 4.84178 15.6667 4.48089V2.23556C15.6667 1.55422 15.1124 1 14.4311 1H11.5689C10.8876 1 10.3333 1.55422 10.3333 2.23556V4.48089C10.3333 4.84178 10.1347 5.13911 9.80133 5.27733C9.46889 5.41644 9.11689 5.34489 8.86178 5.09022L7.27467 3.50311C6.80711 3.03556 5.99333 3.03644 5.52667 3.50311L3.50311 5.52667C3.26978 5.76 3.14133 6.07067 3.14133 6.40089C3.14133 6.73067 3.26978 7.04089 3.50311 7.27467L5.09067 8.86178C5.34533 9.11689 5.41511 9.468 5.27733 9.80133C5.13956 10.1347 4.84178 10.3333 4.48089 10.3333H2.23556C1.55422 10.3333 1 10.8876 1 11.5689V14.4307C1 15.1124 1.55422 15.6667 2.23556 15.6667H4.48089C4.84178 15.6667 5.13911 15.8653 5.27733 16.1987C5.41556 16.532 5.34533 16.8831 5.09067 17.1382L3.50311 18.7253C3.26978 18.9587 3.14133 19.2693 3.14133 19.5991C3.14133 19.9293 3.26978 20.2396 3.50311 20.4733L5.52667 22.4969C5.99378 22.964 6.80711 22.9649 7.27467 22.4969L8.86178 20.9093C9.11689 20.6547 9.46756 20.5844 9.80133 20.7227C10.1347 20.8609 10.3333 21.1582 10.3333 21.5191V23.7644C10.3333 24.4458 10.8876 25 11.5689 25H14.4307C15.112 25 15.6662 24.4458 15.6662 23.7644V21.5191C15.6662 21.1582 15.8649 20.8609 16.1982 20.7227C16.532 20.584 16.8827 20.6547 17.1378 20.9093L18.7249 22.4969C19.1924 22.9644 20.0062 22.9636 20.4729 22.4969L22.4964 20.4733C22.7298 20.24 22.8582 19.9293 22.8582 19.5991C22.8582 19.2693 22.7298 18.9591 22.4964 18.7253L20.9089 17.1382C20.6542 16.8831 20.5844 16.532 20.7222 16.1987C20.86 15.8653 21.1582 15.6667 21.5191 15.6667H23.7644C24.4458 15.6667 25 15.1124 25 14.4311V11.5689C25 10.8876 24.4458 10.3333 23.7644 10.3333ZM24.1111 14.4311C24.1111 14.6222 23.9556 14.7778 23.7644 14.7778H21.5191C20.7973 14.7778 20.1773 15.192 19.9013 15.8587C19.6249 16.5253 19.7702 17.2569 20.2809 17.7671L21.8684 19.3542C22.004 19.4898 22.004 19.7098 21.8684 19.8449L19.8449 21.8684C19.7098 22.0036 19.4898 22.0044 19.3542 21.8684L17.7671 20.2809C17.2564 19.7702 16.5253 19.6258 15.8587 19.9013C15.192 20.1773 14.7778 20.7973 14.7778 21.5191V23.7644C14.7778 23.9556 14.6222 24.1111 14.4311 24.1111H11.5689C11.3778 24.1111 11.2222 23.9556 11.2222 23.7644V21.5191C11.2222 20.7973 10.808 20.1773 10.1413 19.9013C9.91778 19.8084 9.68756 19.7631 9.46 19.7631C9.00933 19.7631 8.57244 19.9409 8.23289 20.2804L6.64578 21.868C6.50978 22.004 6.28978 22.0031 6.15511 21.868L4.13156 19.8444C3.996 19.7089 3.996 19.4889 4.13156 19.3538L5.71911 17.7667C6.22933 17.2564 6.37511 16.5249 6.09867 15.8582C5.82267 15.192 5.20267 14.7778 4.48089 14.7778H2.23556C2.04444 14.7778 1.88889 14.6222 1.88889 14.4311V11.5689C1.88889 11.3778 2.04444 11.2222 2.23556 11.2222H4.48089C5.20267 11.2222 5.82267 10.808 6.09867 10.1413C6.37511 9.47467 6.22978 8.74311 5.71911 8.23289L4.13156 6.64578C3.996 6.51022 3.996 6.29022 4.13156 6.15511L6.15511 4.13156C6.29022 3.996 6.51022 3.996 6.64578 4.13156L8.23289 5.71867C8.74267 6.22844 9.47378 6.37467 10.1413 6.09822C10.808 5.82267 11.2222 5.20267 11.2222 4.48089V2.23556C11.2222 2.04444 11.3778 1.88889 11.5689 1.88889H14.4307C14.6222 1.88889 14.7778 2.04444 14.7778 2.23556V4.48089C14.7778 5.20267 15.192 5.82267 15.8587 6.09867C16.5262 6.37511 17.2569 6.22933 17.7671 5.71911L19.3542 4.132C19.4902 3.99644 19.7102 3.99644 19.8449 4.132L21.8684 6.15556C22.004 6.29111 22.004 6.51111 21.8684 6.64622L20.2809 8.23333C19.7707 8.74356 19.6249 9.47511 19.9013 10.1418C20.1773 10.8084 20.7973 11.2227 21.5191 11.2227H23.7644C23.9556 11.2222 24.1111 11.3778 24.1111 11.5689V14.4311Z" fill="#2D46C4" stroke="#2D46C4" stroke-width="0.5"/>
</svg>
